<?xml version="1.0" encoding="UTF-8" standalone="no"?>
<!DOCTYPE svg PUBLIC "-//W3C//DTD SVG 1.1//EN" "http://www.w3.org/Graphics/SVG/1.1/DTD/svg11.dtd">
<svg width="100%" height="100%" viewBox="0 0 85 85" version="1.1" xmlns="http://www.w3.org/2000/svg" xmlns:xlink="http://www.w3.org/1999/xlink" xml:space="preserve" xmlns:serif="http://www.serif.com/" style="fill-rule:evenodd;clip-rule:evenodd;stroke-linejoin:round;stroke-miterlimit:2;">
    <g id="A" transform="matrix(1,0,0,1,2.5,2.5)">
        <g>
            <g>
                <circle cx="39.937" cy="39.951" r="6.689" style="fill:rgb(0,216,255);"/>
                <path d="M2.667,40C2.667,31.505 19.318,24.667 40,24.667C60.682,24.667 77.334,31.506 77.334,40C77.334,48.494 60.683,55.334 40,55.334C19.317,55.334 2.667,48.495 2.667,40ZM6,40C6,33.352 21.164,28 40,28C58.836,28 74,33.352 74,40C74,46.648 58.836,52 40,52C21.164,52 6,46.648 6,40Z" style="fill:rgb(0,216,255);"/>
                <path d="M21.335,7.669C28.692,3.422 42.939,14.422 53.281,32.334C63.623,50.246 66.025,68.085 58.669,72.332C51.313,76.579 37.065,65.579 26.723,47.667C16.381,29.755 13.979,11.916 21.335,7.669ZM23.002,10.556C28.759,7.232 40.976,17.688 50.394,34C59.812,50.312 62.759,66.121 57.002,69.445C51.245,72.769 39.027,62.313 29.609,46C20.191,29.687 17.244,13.88 23.002,10.556Z" style="fill:rgb(0,216,255);"/>
                <path d="M58.669,7.67C66.026,11.917 63.623,29.757 53.281,47.668C42.939,65.579 28.692,76.581 21.335,72.334C13.978,68.087 16.381,50.247 26.723,32.336C37.065,14.425 51.312,3.423 58.669,7.67ZM57.002,10.557C62.759,13.881 59.812,29.689 50.394,46.002C40.976,62.315 28.759,72.771 23.002,69.447C17.245,66.123 20.192,50.315 29.61,34.002C39.028,17.689 51.245,7.233 57.002,10.557Z" style="fill:rgb(0,216,255);"/>
            </g>
        </g>
    </g>
</svg>
