<?xml version="1.0" encoding="UTF-8" standalone="no"?>
<!DOCTYPE svg PUBLIC "-//W3C//DTD SVG 1.1//EN" "http://www.w3.org/Graphics/SVG/1.1/DTD/svg11.dtd">
<svg width="100%" height="100%" viewBox="0 0 64 64" version="1.1" xmlns="http://www.w3.org/2000/svg" xmlns:xlink="http://www.w3.org/1999/xlink" xml:space="preserve" xmlns:serif="http://www.serif.com/" style="fill-rule:evenodd;clip-rule:evenodd;stroke-linejoin:round;stroke-miterlimit:2;">
    <rect id="Artboard1" x="0" y="0" width="64" height="64" style="fill:none;"/>
    <g id="Artboard11" serif:id="Artboard1">
        <g transform="matrix(1,0,0,1,0.499873,1.006)">
            <path d="M42.881,42.106C45.058,41.881 46.71,40.004 46.635,37.751C46.547,35.505 44.679,33.704 42.431,33.697L42.281,33.697C39.953,33.772 38.151,35.724 38.227,38.052C38.302,39.178 38.752,40.154 39.428,40.83C36.875,45.861 32.971,49.54 27.115,52.618C23.136,54.72 19.006,55.471 14.877,54.946C11.498,54.495 8.871,52.994 7.219,50.516C4.817,46.837 4.591,42.858 6.619,38.878C8.046,36.025 10.298,33.922 11.724,32.871C11.424,31.895 10.973,30.243 10.748,29.042C-0.14,36.925 0.986,47.587 4.29,52.618C6.768,56.372 11.798,58.7 17.354,58.7C18.856,58.7 20.357,58.55 21.859,58.175C31.469,56.298 38.752,50.591 42.881,42.107L42.881,42.106ZM56.095,32.796C50.389,26.113 41.98,22.434 32.37,22.434L31.169,22.434C30.493,21.083 29.067,20.181 27.49,20.181L27.34,20.181C25.013,20.256 23.211,22.208 23.286,24.536C23.374,26.782 25.242,28.583 27.49,28.59L27.64,28.59C29.251,28.511 30.682,27.518 31.319,26.037L32.67,26.037C38.376,26.037 43.782,27.689 48.662,30.917C52.416,33.395 55.119,36.623 56.62,40.528C57.896,43.682 57.821,46.76 56.47,49.388C54.368,53.367 50.839,55.545 46.184,55.545C43.181,55.545 40.328,54.644 38.826,53.968C38,54.719 36.498,55.92 35.447,56.671C38.676,58.174 41.98,59 45.133,59C52.341,59 57.671,55.02 59.699,51.041C61.876,46.686 61.726,39.178 56.095,32.796ZM17.954,43.382C18.042,45.628 19.91,47.429 22.158,47.436L22.308,47.436C24.636,47.361 26.437,45.409 26.362,43.081C26.274,40.835 24.406,39.034 22.158,39.027L22.008,39.027C21.858,39.027 21.632,39.027 21.483,39.102C18.405,33.996 17.128,28.441 17.579,22.434C17.879,17.929 19.381,14.025 22.009,10.796C24.186,8.018 28.391,6.666 31.244,6.592C39.202,6.442 42.581,16.353 42.806,20.332C43.782,20.557 45.434,21.083 46.56,21.458C45.659,9.295 38.151,2.988 30.943,2.988C24.186,2.988 17.954,7.868 15.476,15.076C12.022,24.687 14.275,33.922 18.479,41.205C18.104,41.73 17.878,42.556 17.954,43.382Z" style="fill:rgb(118,74,188);fill-rule:nonzero;"/>
        </g>
    </g>
</svg>
